<svg xmlns="http://www.w3.org/2000/svg" xmlns:xlink="http://www.w3.org/1999/xlink" width="209" height="40" viewBox="0 0 128 40">
  <defs>
    <style>
      .cls-1 {
        fill: #fff;
        font-size: 30px;
        font-family: SegoeUI, Segoe UI;
      }

      .cls-2 {
        fill: url(#linear-gradient);
      }
    </style>
    <linearGradient id="linear-gradient" y1="0.5" x2="1" y2="0.5" gradientUnits="objectBoundingBox">
      <stop offset="0" stop-color="#e86024"/>
      <stop offset="1" stop-color="#e8b424"/>
    </linearGradient>
  </defs>
  <g id="组_694" data-name="组 694" transform="translate(-164 -6)">
    <text id="Monibuca" class="cls-1" transform="translate(240 38)"><tspan x="0" y="0">Monibuca</tspan></text>
    <path id="路径_1104" data-name="路径 1104" class="cls-2" d="M81.011,5.224c-.995-.543-3.1-1.168-6.06.733l-13.627,8.76A11.258,11.258,0,0,0,50.162,4.792H21.246A11.248,11.248,0,0,0,10,16.039V29.661a1.615,1.615,0,0,0,1.615,1.615h3a1.615,1.615,0,0,0,1.615-1.615V16.039a5.016,5.016,0,0,1,5.016-5.016H50.162a5.016,5.016,0,0,1,5.016,5.016V29.661a1.615,1.615,0,0,0,1.615,1.615h3a1.615,1.615,0,0,0,1.615-1.615V22.073L76.988,12.056v17.6A1.615,1.615,0,0,0,78.6,31.276h3a1.615,1.615,0,0,0,1.615-1.615V9.013A4.242,4.242,0,0,0,81.011,5.224Z" transform="translate(154.001 7.327)"/>
  </g>
</svg>
